<mxfile host="app.diagrams.net" modified="2022-02-03T01:04:07.523Z" agent="5.0 (Macintosh; Intel Mac OS X 10_15_7) AppleWebKit/605.1.15 (KHTML, like Gecko) Version/15.3 Safari/605.1.15" etag="maBnBLi4LbXX2iiC7ojc" version="16.4.11" type="github">
  <diagram id="C5RBs43oDa-KdzZeNtuy" name="Page-1">
    <mxGraphModel dx="1198" dy="1265" grid="1" gridSize="10" guides="1" tooltips="1" connect="1" arrows="1" fold="1" page="1" pageScale="1" pageWidth="827" pageHeight="1169" math="0" shadow="0">
      <root>
        <mxCell id="WIyWlLk6GJQsqaUBKTNV-0" />
        <mxCell id="WIyWlLk6GJQsqaUBKTNV-1" parent="WIyWlLk6GJQsqaUBKTNV-0" />
        <mxCell id="hpW9yaPuk8U4hdUkABOX-13" style="edgeStyle=orthogonalEdgeStyle;rounded=0;orthogonalLoop=1;jettySize=auto;html=1;exitX=0.5;exitY=1;exitDx=0;exitDy=0;entryX=0.5;entryY=0;entryDx=0;entryDy=0;" edge="1" parent="WIyWlLk6GJQsqaUBKTNV-1" source="WIyWlLk6GJQsqaUBKTNV-6" target="hpW9yaPuk8U4hdUkABOX-10">
          <mxGeometry relative="1" as="geometry" />
        </mxCell>
        <mxCell id="hpW9yaPuk8U4hdUkABOX-77" style="edgeStyle=orthogonalEdgeStyle;rounded=0;orthogonalLoop=1;jettySize=auto;html=1;entryX=0;entryY=0.5;entryDx=0;entryDy=0;fontSize=12;" edge="1" parent="WIyWlLk6GJQsqaUBKTNV-1" source="WIyWlLk6GJQsqaUBKTNV-6" target="hpW9yaPuk8U4hdUkABOX-16">
          <mxGeometry relative="1" as="geometry" />
        </mxCell>
        <mxCell id="WIyWlLk6GJQsqaUBKTNV-6" value="if price &amp;lt; 1" style="rhombus;whiteSpace=wrap;html=1;shadow=0;fontFamily=Helvetica;fontSize=12;align=center;strokeWidth=1;spacing=6;spacingTop=-4;" parent="WIyWlLk6GJQsqaUBKTNV-1" vertex="1">
          <mxGeometry x="451" y="520" width="100" height="80" as="geometry" />
        </mxCell>
        <mxCell id="hpW9yaPuk8U4hdUkABOX-6" style="edgeStyle=orthogonalEdgeStyle;rounded=0;orthogonalLoop=1;jettySize=auto;html=1;entryX=0.5;entryY=0;entryDx=0;entryDy=0;" edge="1" parent="WIyWlLk6GJQsqaUBKTNV-1" source="hpW9yaPuk8U4hdUkABOX-0" target="hpW9yaPuk8U4hdUkABOX-2">
          <mxGeometry relative="1" as="geometry" />
        </mxCell>
        <mxCell id="hpW9yaPuk8U4hdUkABOX-0" value="OUTPUT&lt;br&gt;&quot;Please enter a price&quot;" style="shape=parallelogram;perimeter=parallelogramPerimeter;whiteSpace=wrap;html=1;fixedSize=1;" vertex="1" parent="WIyWlLk6GJQsqaUBKTNV-1">
          <mxGeometry x="421" y="280" width="160" height="80" as="geometry" />
        </mxCell>
        <mxCell id="hpW9yaPuk8U4hdUkABOX-7" style="edgeStyle=orthogonalEdgeStyle;rounded=0;orthogonalLoop=1;jettySize=auto;html=1;entryX=0.5;entryY=0;entryDx=0;entryDy=0;" edge="1" parent="WIyWlLk6GJQsqaUBKTNV-1" source="hpW9yaPuk8U4hdUkABOX-2" target="WIyWlLk6GJQsqaUBKTNV-6">
          <mxGeometry relative="1" as="geometry" />
        </mxCell>
        <mxCell id="hpW9yaPuk8U4hdUkABOX-2" value="INPUT&lt;br&gt;price" style="shape=parallelogram;perimeter=parallelogramPerimeter;whiteSpace=wrap;html=1;fixedSize=1;" vertex="1" parent="WIyWlLk6GJQsqaUBKTNV-1">
          <mxGeometry x="421" y="400" width="160" height="80" as="geometry" />
        </mxCell>
        <mxCell id="hpW9yaPuk8U4hdUkABOX-75" style="edgeStyle=orthogonalEdgeStyle;rounded=0;orthogonalLoop=1;jettySize=auto;html=1;entryX=0.5;entryY=0;entryDx=0;entryDy=0;fontSize=12;" edge="1" parent="WIyWlLk6GJQsqaUBKTNV-1" source="hpW9yaPuk8U4hdUkABOX-10" target="hpW9yaPuk8U4hdUkABOX-11">
          <mxGeometry relative="1" as="geometry" />
        </mxCell>
        <mxCell id="hpW9yaPuk8U4hdUkABOX-10" value="saleprice = price * .8" style="rounded=0;whiteSpace=wrap;html=1;" vertex="1" parent="WIyWlLk6GJQsqaUBKTNV-1">
          <mxGeometry x="441" y="640" width="120" height="80" as="geometry" />
        </mxCell>
        <mxCell id="hpW9yaPuk8U4hdUkABOX-11" value="OUTPUT&lt;br&gt;&quot;The discounted &lt;br&gt;price is: &quot; + saleprice" style="shape=parallelogram;perimeter=parallelogramPerimeter;whiteSpace=wrap;html=1;fixedSize=1;" vertex="1" parent="WIyWlLk6GJQsqaUBKTNV-1">
          <mxGeometry x="421" y="760" width="160" height="80" as="geometry" />
        </mxCell>
        <mxCell id="hpW9yaPuk8U4hdUkABOX-14" value="false" style="text;html=1;strokeColor=none;fillColor=none;align=center;verticalAlign=middle;whiteSpace=wrap;rounded=0;" vertex="1" parent="WIyWlLk6GJQsqaUBKTNV-1">
          <mxGeometry x="491" y="600" width="60" height="30" as="geometry" />
        </mxCell>
        <mxCell id="hpW9yaPuk8U4hdUkABOX-82" style="edgeStyle=orthogonalEdgeStyle;rounded=0;orthogonalLoop=1;jettySize=auto;html=1;entryX=1;entryY=0.5;entryDx=0;entryDy=0;entryPerimeter=0;fontSize=12;" edge="1" parent="WIyWlLk6GJQsqaUBKTNV-1" source="hpW9yaPuk8U4hdUkABOX-16" target="hpW9yaPuk8U4hdUkABOX-23">
          <mxGeometry relative="1" as="geometry">
            <Array as="points">
              <mxPoint x="681" y="950" />
            </Array>
          </mxGeometry>
        </mxCell>
        <mxCell id="hpW9yaPuk8U4hdUkABOX-16" value="OUTPUT&lt;br&gt;&quot;Price must be greater &lt;br&gt;than 0. Program &lt;br&gt;will now exit.&quot;" style="shape=parallelogram;perimeter=parallelogramPerimeter;whiteSpace=wrap;html=1;fixedSize=1;" vertex="1" parent="WIyWlLk6GJQsqaUBKTNV-1">
          <mxGeometry x="601" y="520" width="160" height="80" as="geometry" />
        </mxCell>
        <mxCell id="hpW9yaPuk8U4hdUkABOX-23" value="STOP" style="strokeWidth=2;html=1;shape=mxgraph.flowchart.terminator;whiteSpace=wrap;" vertex="1" parent="WIyWlLk6GJQsqaUBKTNV-1">
          <mxGeometry x="451" y="920" width="100" height="60" as="geometry" />
        </mxCell>
        <mxCell id="hpW9yaPuk8U4hdUkABOX-90" style="edgeStyle=orthogonalEdgeStyle;rounded=0;orthogonalLoop=1;jettySize=auto;html=1;entryX=0.5;entryY=0;entryDx=0;entryDy=0;fontSize=12;" edge="1" parent="WIyWlLk6GJQsqaUBKTNV-1" source="hpW9yaPuk8U4hdUkABOX-24" target="hpW9yaPuk8U4hdUkABOX-0">
          <mxGeometry relative="1" as="geometry" />
        </mxCell>
        <mxCell id="hpW9yaPuk8U4hdUkABOX-24" value="START" style="strokeWidth=2;html=1;shape=mxgraph.flowchart.start_1;whiteSpace=wrap;" vertex="1" parent="WIyWlLk6GJQsqaUBKTNV-1">
          <mxGeometry x="451" y="180" width="100" height="60" as="geometry" />
        </mxCell>
        <mxCell id="hpW9yaPuk8U4hdUkABOX-31" value="" style="endArrow=classic;html=1;rounded=0;exitX=0.5;exitY=1;exitDx=0;exitDy=0;entryX=0.5;entryY=0;entryDx=0;entryDy=0;entryPerimeter=0;" edge="1" parent="WIyWlLk6GJQsqaUBKTNV-1" source="hpW9yaPuk8U4hdUkABOX-11" target="hpW9yaPuk8U4hdUkABOX-23">
          <mxGeometry relative="1" as="geometry">
            <mxPoint x="411" y="900" as="sourcePoint" />
            <mxPoint x="511" y="900" as="targetPoint" />
          </mxGeometry>
        </mxCell>
        <mxCell id="hpW9yaPuk8U4hdUkABOX-32" value="" style="shape=message;html=1;outlineConnect=0;" vertex="1" parent="hpW9yaPuk8U4hdUkABOX-31">
          <mxGeometry width="20" height="14" relative="1" as="geometry">
            <mxPoint x="-10" y="-15" as="offset" />
          </mxGeometry>
        </mxCell>
        <mxCell id="hpW9yaPuk8U4hdUkABOX-84" style="edgeStyle=orthogonalEdgeStyle;rounded=0;orthogonalLoop=1;jettySize=auto;html=1;exitX=0;exitY=0.5;exitDx=0;exitDy=0;entryX=0;entryY=0.5;entryDx=0;entryDy=0;entryPerimeter=0;fontSize=12;" edge="1" parent="hpW9yaPuk8U4hdUkABOX-31" source="hpW9yaPuk8U4hdUkABOX-32" target="hpW9yaPuk8U4hdUkABOX-24">
          <mxGeometry relative="1" as="geometry">
            <Array as="points">
              <mxPoint x="360" y="872" />
              <mxPoint x="360" y="210" />
            </Array>
          </mxGeometry>
        </mxCell>
        <mxCell id="hpW9yaPuk8U4hdUkABOX-43" value="method #1" style="text;html=1;strokeColor=none;fillColor=none;align=center;verticalAlign=middle;whiteSpace=wrap;rounded=0;fontSize=16;" vertex="1" parent="WIyWlLk6GJQsqaUBKTNV-1">
          <mxGeometry x="561" y="160" width="80" height="40" as="geometry" />
        </mxCell>
        <mxCell id="hpW9yaPuk8U4hdUkABOX-47" style="edgeStyle=orthogonalEdgeStyle;rounded=0;orthogonalLoop=1;jettySize=auto;html=1;entryX=0.5;entryY=0;entryDx=0;entryDy=0;" edge="1" source="hpW9yaPuk8U4hdUkABOX-48" target="hpW9yaPuk8U4hdUkABOX-50" parent="WIyWlLk6GJQsqaUBKTNV-1">
          <mxGeometry relative="1" as="geometry" />
        </mxCell>
        <mxCell id="hpW9yaPuk8U4hdUkABOX-48" value="OUTPUT&lt;br&gt;&quot;Please enter a price&quot;" style="shape=parallelogram;perimeter=parallelogramPerimeter;whiteSpace=wrap;html=1;fixedSize=1;" vertex="1" parent="WIyWlLk6GJQsqaUBKTNV-1">
          <mxGeometry x="901" y="280" width="160" height="80" as="geometry" />
        </mxCell>
        <mxCell id="hpW9yaPuk8U4hdUkABOX-68" style="edgeStyle=orthogonalEdgeStyle;rounded=0;orthogonalLoop=1;jettySize=auto;html=1;exitX=0.5;exitY=1;exitDx=0;exitDy=0;entryX=0.5;entryY=0;entryDx=0;entryDy=0;fontSize=16;" edge="1" parent="WIyWlLk6GJQsqaUBKTNV-1" source="hpW9yaPuk8U4hdUkABOX-50" target="hpW9yaPuk8U4hdUkABOX-52">
          <mxGeometry relative="1" as="geometry" />
        </mxCell>
        <mxCell id="hpW9yaPuk8U4hdUkABOX-50" value="INPUT&lt;br&gt;price" style="shape=parallelogram;perimeter=parallelogramPerimeter;whiteSpace=wrap;html=1;fixedSize=1;" vertex="1" parent="WIyWlLk6GJQsqaUBKTNV-1">
          <mxGeometry x="901" y="400" width="160" height="80" as="geometry" />
        </mxCell>
        <mxCell id="hpW9yaPuk8U4hdUkABOX-51" style="edgeStyle=orthogonalEdgeStyle;rounded=0;orthogonalLoop=1;jettySize=auto;html=1;exitX=0.5;exitY=1;exitDx=0;exitDy=0;entryX=0.5;entryY=0;entryDx=0;entryDy=0;" edge="1" source="hpW9yaPuk8U4hdUkABOX-52" target="hpW9yaPuk8U4hdUkABOX-53" parent="WIyWlLk6GJQsqaUBKTNV-1">
          <mxGeometry relative="1" as="geometry" />
        </mxCell>
        <mxCell id="hpW9yaPuk8U4hdUkABOX-52" value="saleprice = price * .8" style="rounded=0;whiteSpace=wrap;html=1;" vertex="1" parent="WIyWlLk6GJQsqaUBKTNV-1">
          <mxGeometry x="921" y="520" width="120" height="80" as="geometry" />
        </mxCell>
        <mxCell id="hpW9yaPuk8U4hdUkABOX-85" style="edgeStyle=orthogonalEdgeStyle;rounded=0;orthogonalLoop=1;jettySize=auto;html=1;exitX=0.5;exitY=1;exitDx=0;exitDy=0;entryX=0.5;entryY=0;entryDx=0;entryDy=0;fontSize=12;" edge="1" parent="WIyWlLk6GJQsqaUBKTNV-1" source="hpW9yaPuk8U4hdUkABOX-53" target="hpW9yaPuk8U4hdUkABOX-66">
          <mxGeometry relative="1" as="geometry" />
        </mxCell>
        <mxCell id="hpW9yaPuk8U4hdUkABOX-53" value="OUTPUT&lt;br&gt;&quot;The discounted &lt;br&gt;price is: &quot; + saleprice" style="shape=parallelogram;perimeter=parallelogramPerimeter;whiteSpace=wrap;html=1;fixedSize=1;" vertex="1" parent="WIyWlLk6GJQsqaUBKTNV-1">
          <mxGeometry x="901" y="640" width="160" height="80" as="geometry" />
        </mxCell>
        <mxCell id="hpW9yaPuk8U4hdUkABOX-59" value="STOP" style="strokeWidth=2;html=1;shape=mxgraph.flowchart.terminator;whiteSpace=wrap;" vertex="1" parent="WIyWlLk6GJQsqaUBKTNV-1">
          <mxGeometry x="931" y="930" width="100" height="60" as="geometry" />
        </mxCell>
        <mxCell id="hpW9yaPuk8U4hdUkABOX-89" style="edgeStyle=orthogonalEdgeStyle;rounded=0;orthogonalLoop=1;jettySize=auto;html=1;exitX=0.5;exitY=1;exitDx=0;exitDy=0;exitPerimeter=0;entryX=0.5;entryY=0;entryDx=0;entryDy=0;fontSize=12;" edge="1" parent="WIyWlLk6GJQsqaUBKTNV-1" source="hpW9yaPuk8U4hdUkABOX-60" target="hpW9yaPuk8U4hdUkABOX-48">
          <mxGeometry relative="1" as="geometry" />
        </mxCell>
        <mxCell id="hpW9yaPuk8U4hdUkABOX-60" value="START" style="strokeWidth=2;html=1;shape=mxgraph.flowchart.start_1;whiteSpace=wrap;" vertex="1" parent="WIyWlLk6GJQsqaUBKTNV-1">
          <mxGeometry x="931" y="180" width="100" height="60" as="geometry" />
        </mxCell>
        <mxCell id="hpW9yaPuk8U4hdUkABOX-64" value="method #3" style="text;html=1;strokeColor=none;fillColor=none;align=center;verticalAlign=middle;whiteSpace=wrap;rounded=0;fontSize=16;" vertex="1" parent="WIyWlLk6GJQsqaUBKTNV-1">
          <mxGeometry x="1041" y="160" width="80" height="40" as="geometry" />
        </mxCell>
        <mxCell id="hpW9yaPuk8U4hdUkABOX-73" style="edgeStyle=orthogonalEdgeStyle;rounded=0;orthogonalLoop=1;jettySize=auto;html=1;entryX=0.5;entryY=0;entryDx=0;entryDy=0;entryPerimeter=0;fontSize=12;" edge="1" parent="WIyWlLk6GJQsqaUBKTNV-1" source="hpW9yaPuk8U4hdUkABOX-66" target="hpW9yaPuk8U4hdUkABOX-59">
          <mxGeometry relative="1" as="geometry" />
        </mxCell>
        <mxCell id="hpW9yaPuk8U4hdUkABOX-88" style="edgeStyle=orthogonalEdgeStyle;rounded=0;orthogonalLoop=1;jettySize=auto;html=1;exitX=0;exitY=0.5;exitDx=0;exitDy=0;entryX=0;entryY=0.5;entryDx=0;entryDy=0;entryPerimeter=0;fontSize=12;" edge="1" parent="WIyWlLk6GJQsqaUBKTNV-1" source="hpW9yaPuk8U4hdUkABOX-66" target="hpW9yaPuk8U4hdUkABOX-60">
          <mxGeometry relative="1" as="geometry">
            <Array as="points">
              <mxPoint x="840" y="825" />
              <mxPoint x="840" y="210" />
            </Array>
          </mxGeometry>
        </mxCell>
        <mxCell id="hpW9yaPuk8U4hdUkABOX-66" value="OUTPUT&lt;br&gt;&quot;Would you like to&amp;nbsp;&lt;br&gt;enter another&lt;br&gt;price?&quot;" style="rhombus;whiteSpace=wrap;html=1;shadow=0;fontFamily=Helvetica;fontSize=12;align=center;strokeWidth=1;spacing=6;spacingTop=-4;" vertex="1" parent="WIyWlLk6GJQsqaUBKTNV-1">
          <mxGeometry x="906.5" y="760" width="149" height="130" as="geometry" />
        </mxCell>
        <mxCell id="hpW9yaPuk8U4hdUkABOX-86" value="yes" style="text;html=1;strokeColor=none;fillColor=none;align=center;verticalAlign=middle;whiteSpace=wrap;rounded=0;fontSize=12;" vertex="1" parent="WIyWlLk6GJQsqaUBKTNV-1">
          <mxGeometry x="841" y="800" width="60" height="30" as="geometry" />
        </mxCell>
        <mxCell id="hpW9yaPuk8U4hdUkABOX-87" value="no" style="text;html=1;strokeColor=none;fillColor=none;align=center;verticalAlign=middle;whiteSpace=wrap;rounded=0;fontSize=12;" vertex="1" parent="WIyWlLk6GJQsqaUBKTNV-1">
          <mxGeometry x="940" y="890" width="60" height="30" as="geometry" />
        </mxCell>
        <mxCell id="hpW9yaPuk8U4hdUkABOX-91" value="true" style="text;html=1;strokeColor=none;fillColor=none;align=center;verticalAlign=middle;whiteSpace=wrap;rounded=0;fontSize=12;" vertex="1" parent="WIyWlLk6GJQsqaUBKTNV-1">
          <mxGeometry x="551" y="530" width="60" height="30" as="geometry" />
        </mxCell>
      </root>
    </mxGraphModel>
  </diagram>
</mxfile>
